{"title":"Tiziano Ferro - Per Dirti Ciao (h264/mp4)","uid":7399747,"size":35928996,"categoryP":"video","categoryS":"music_videos","magnet":"?xt=urn:btih:1c294632bdf3d8b1296f3da065bf772344bfa1d8&amp;dn=Tiziano+Ferro+-+Per+Dirti+Ciao+%28h264%2Fmp4%29&amp;tr=udp%3A%2F%2Ftracker.openbittorrent.com%3A80&amp;tr=udp%3A%2F%2Fopen.demonii.com%3A1337&amp;tr=udp%3A%2F%2Ftracker.coppersurfer.tk%3A6969&amp;tr=udp%3A%2F%2Fexodus.desync.com%3A6969","seeders":1,"leechers":0,"uploader":"MusicVideos-HQ","files":1,"time":1341037370,"description":"General\n\nFormat                           : MPEG-4\nFormat profile                   : Base Media\nCodec ID                         : isom\nFile size                        : 34.3 MiB\nDuration                         : 3mn 27s\nOverall bit rate                 : 1 383 Kbps\nEncoded date                     : UTC 2012-06-28 05:33:54\nTagged date                      : UTC 2012-06-28 05:33:54\n\nVideo\nID                               : 1\nFormat                           : AVC\nFormat/Info                      : Advanced Video Codec\nFormat profile                   : &lt;a class=&quot;__cf_email__&quot; href=&quot;/cdn-cgi/l/email-protection&quot; data-cfemail=&quot;a5edccc2cde5e9968b95&quot;&gt;[email&amp;#160;protected]&lt;/a&gt;&lt;script cf-hash='f9e31' type=&quot;text/javascript&quot;&gt;\n/* &lt;![CDATA[ */!function(){try{var t=&quot;currentScript&quot;in document?document.currentScript:function(){for(var t=document.getElementsByTagName(&quot;script&quot;),e=t.length;e--;)if(t[e].getAttribute(&quot;cf-hash&quot;))return t[e]}();if(t&amp;&amp;t.previousSibling){var e,r,n,i,c=t.previousSibling,a=c.getAttribute(&quot;data-cfemail&quot;);if(a){for(e=&quot;&quot;,r=parseInt(a.substr(0,2),16),n=2;a.length-n;n+=2)i=parseInt(a.substr(n,2),16)^r,e+=String.fromCharCode(i);e=document.createTextNode(e),c.parentNode.replaceChild(e,c)}}}catch(u){}}();/* ]]&gt; */&lt;/script&gt;\nFormat settings, CABAC           : Yes\nFormat settings, ReFrames        : 2 frames\nCodec ID                         : avc1\nCodec ID/Info                    : Advanced Video Coding\nDuration                         : 3mn 27s\nBit rate mode                    : Variable\nBit rate                         : 1 253 Kbps\nMaximum bit rate                 : 4 728 Kbps\nWidth                            : 720 pixels\nHeight                           : 480 pixels\nDisplay aspect ratio             : 16:9\nOriginal display aspect ratio    : 16:9\nFrame rate mode                  : Constant\nFrame rate                       : 25.000 fps\nStandard                         : NTSC\nColor space                      : YUV\nChroma subsampling               : 4:2:0\nBit depth                        : 8 bits\nScan type                        : Progressive\nBits/(Pixel*Frame)               : 0.145\nStream size                      : 31.3 MiB (91%)\n\n\nAudio\nID                               : 2\nFormat                           : MPEG Audio\nFormat version                   : Version 1\nFormat profile                   : Layer 3\nMode                             : Joint stereo\nMode extension                   : MS Stereo\nCodec ID                         : 6B\nDuration                         : 3mn 27s\nBit rate mode                    : Variable\nBit rate                         : 112 Kbps\nMinimum bit rate                 : 32.0 Kbps\nMaximum bit rate                 : 132 Kbps\nChannel(s)                       : 2 channels\nSampling rate                    : 44.1 KHz\nCompression mode                 : Lossy\nStream size                      : 2.78 MiB (8%)","torrent":{"xt":"urn:btih:1c294632bdf3d8b1296f3da065bf772344bfa1d8","amp;dn":"Tiziano+Ferro+-+Per+Dirti+Ciao+%28h264%2Fmp4%29","amp;tr":["udp%3A%2F%2Ftracker.openbittorrent.com%3A80","udp%3A%2F%2Fopen.demonii.com%3A1337","udp%3A%2F%2Ftracker.coppersurfer.tk%3A6969","udp%3A%2F%2Fexodus.desync.com%3A6969"],"infoHash":"1c294632bdf3d8b1296f3da065bf772344bfa1d8","infoHashBuffer":{"type":"Buffer","data":[28,41,70,50,189,243,216,177,41,111,61,160,101,191,119,35,68,191,161,216]},"announce":[],"urlList":[]}}